<svg xmlns="http://www.w3.org/2000/svg" viewBox="0 0 800 480" font-family="'Noto Sans JP', sans-serif">
  <rect width="800" height="480" fill="#F5F4F0" rx="12"/>
  <text x="400" y="40" text-anchor="middle" font-size="18" font-weight="bold" fill="#1A1917">内科専門医試験 教材の全体像</text>
  <rect x="280" y="60" width="240" height="50" rx="25" fill="#1B4F3A"/>
  <text x="400" y="90" text-anchor="middle" font-size="14" fill="#fff" font-weight="bold">内科専門医試験 合格</text>
  <line x1="400" y1="110" x2="400" y2="140" stroke="#1B4F3A" stroke-width="2"/>
  <line x1="200" y1="140" x2="600" y2="140" stroke="#1B4F3A" stroke-width="2"/>
  <line x1="200" y1="140" x2="200" y2="160" stroke="#1B4F3A" stroke-width="2"/>
  <line x1="400" y1="140" x2="400" y2="160" stroke="#1B4F3A" stroke-width="2"/>
  <line x1="600" y1="140" x2="600" y2="160" stroke="#1B4F3A" stroke-width="2"/>
  <rect x="110" y="160" width="180" height="44" rx="8" fill="#FEFEFC" stroke="#1B4F3A" stroke-width="2"/>
  <text x="200" y="177" text-anchor="middle" font-size="11" fill="#6B6760">STEP 1</text>
  <text x="200" y="194" text-anchor="middle" font-size="13" font-weight="bold" fill="#1A1917">問題集で演習</text>
  <rect x="310" y="160" width="180" height="44" rx="8" fill="#FEFEFC" stroke="#1B4F3A" stroke-width="2"/>
  <text x="400" y="177" text-anchor="middle" font-size="11" fill="#6B6760">STEP 2</text>
  <text x="400" y="194" text-anchor="middle" font-size="13" font-weight="bold" fill="#1A1917">講義動画で理解</text>
  <rect x="510" y="160" width="180" height="44" rx="8" fill="#FEFEFC" stroke="#1B4F3A" stroke-width="2"/>
  <text x="600" y="177" text-anchor="middle" font-size="11" fill="#6B6760">STEP 3</text>
  <text x="600" y="194" text-anchor="middle" font-size="13" font-weight="bold" fill="#1A1917">参考書で整理</text>
  <rect x="60" y="230" width="170" height="60" rx="6" fill="#E8F0EC" stroke="#DDD9D2"/>
  <text x="145" y="253" text-anchor="middle" font-size="11" font-weight="bold" fill="#1B4F3A">QBオンライン</text>
  <text x="145" y="278" text-anchor="middle" font-size="10" fill="#6B6760">約500問 / 22,000円</text>
  <rect x="250" y="230" width="170" height="60" rx="6" fill="#E8F0EC" stroke="#DDD9D2"/>
  <text x="335" y="253" text-anchor="middle" font-size="11" font-weight="bold" fill="#1B4F3A">THE内科専門医問題集</text>
  <text x="335" y="278" text-anchor="middle" font-size="10" fill="#6B6760">約600問 / 約22,000円</text>
  <rect x="60" y="300" width="170" height="60" rx="6" fill="#E8F0EC" stroke="#DDD9D2"/>
  <text x="145" y="323" text-anchor="middle" font-size="11" font-weight="bold" fill="#1B4F3A">過去問題集(学会公式)</text>
  <text x="145" y="348" text-anchor="middle" font-size="10" fill="#6B6760">334題 / 約10,000円</text>
  <rect x="250" y="300" width="170" height="60" rx="6" fill="#E8F0EC" stroke="#DDD9D2"/>
  <text x="335" y="323" text-anchor="middle" font-size="11" font-weight="bold" fill="#1B4F3A">Quick Check</text>
  <text x="335" y="348" text-anchor="middle" font-size="10" fill="#6B6760">一問一答 / YN付録</text>
  <rect x="450" y="230" width="170" height="60" rx="6" fill="#FEF3C7" stroke="#DDD9D2"/>
  <text x="535" y="253" text-anchor="middle" font-size="11" font-weight="bold" fill="#92400E">CareNeTV</text>
  <text x="535" y="278" text-anchor="middle" font-size="10" fill="#6B6760">月額5,500円</text>
  <rect x="450" y="300" width="170" height="60" rx="6" fill="#FEF3C7" stroke="#DDD9D2"/>
  <text x="535" y="323" text-anchor="middle" font-size="11" font-weight="bold" fill="#92400E">Q-Assist</text>
  <text x="535" y="348" text-anchor="middle" font-size="10" fill="#6B6760">33,000円(QBセット44,000円)</text>
  <rect x="640" y="230" width="140" height="130" rx="6" fill="#DCFCE7" stroke="#DDD9D2"/>
  <text x="710" y="260" text-anchor="middle" font-size="11" font-weight="bold" fill="#166534">イヤーノート</text>
  <text x="710" y="285" text-anchor="middle" font-size="10" fill="#6B6760">30,360円</text>
  <line x1="710" y1="296" x2="710" y2="306" stroke="#DDD9D2"/>
  <text x="710" y="322" text-anchor="middle" font-size="11" font-weight="bold" fill="#166534">WEB内科塾</text>
  <text x="710" y="347" text-anchor="middle" font-size="10" fill="#6B6760">1,600問超</text>
  <rect x="60" y="390" width="360" height="40" rx="6" fill="#1B4F3A"/>
  <text x="240" y="415" text-anchor="middle" font-size="12" fill="#fff" font-weight="bold">迷ったら: QBオンライン + CareNeTV 2ヶ月 = 約33,000円</text>
  <rect x="440" y="390" width="340" height="40" rx="6" fill="#FEFEFC" stroke="#1B4F3A" stroke-width="1.5"/>
  <text x="610" y="415" text-anchor="middle" font-size="12" fill="#1B4F3A" font-weight="bold">万全を期すなら: フルセット = 約8〜10万円</text>
  <text x="400" y="468" text-anchor="middle" font-size="10" fill="#6B6760">© 内科ナビ naikanavi.com</text>
</svg>
